Coordinates
version=1
nRows=9
nColumns=63
inDegrees=yes

Units are S.I. units (second, meters, Newtons, ...)
If the header above contains a line with 'inDegrees', this indicates whether rotational values are in degrees (yes) or radians (no).

endheader
time	pelvis_tilt	pelvis_list	pelvis_rotation	pelvis_tx	pelvis_ty	pelvis_tz	hip_flexion_r	hip_adduction_r	hip_rotation_r	knee_angle_r	knee_angle_r_beta	ankle_angle_r	subtalar_angle_r	mtp_angle_r	hip_flexion_l	hip_adduction_l	hip_rotation_l	knee_angle_l	knee_angle_l_beta	ankle_angle_l	subtalar_angle_l	mtp_angle_l	L5_S1_Flex_Ext	L5_S1_Lat_Bending	L5_S1_axial_rotation	L4_L5_Flex_Ext	L4_L5_Lat_Bending	L4_L5_axial_rotation	L3_L4_Flex_Ext	L3_L4_Lat_Bending	L3_L4_axial_rotation	L2_L3_Flex_Ext	L2_L3_Lat_Bending	L2_L3_axial_rotation	L1_L2_Flex_Ext	L1_L2_Lat_Bending	L1_L2_axial_rotation	L1_T12_Flex_Ext	L1_T12_Lat_Bending	L1_T12_axial_rotation	Abs_r3	Abs_r2	Abs_r1	Abs_t1	Abs_t2	neck_flexion	neck_bending	neck_rotation	arm_flex_r	arm_add_r	arm_rot_r	elbow_flex_r	pro_sup_r	wrist_flex_r	wrist_dev_r	arm_flex_l	arm_add_l	arm_rot_l	elbow_flex_l	pro_sup_l	wrist_flex_l	wrist_dev_l
      0.00000000	     10.34170100	     -4.19790759	     98.17772167	      0.41408195	      0.73480884	      0.72758736	      7.61105048	      4.45360793	      2.41831721	      0.95510071	      0.01666965	     19.58467545	    -14.23620331	      0.00000000	     10.11814658	     -4.09182877	      2.30306976	      0.34378151	      0.00600012	     33.97250331	     14.81748093	      0.00000000	      0.34504344	      0.66489173	     -1.91449840	      0.64078017	      0.88430600	     -2.03415455	      0.56687187	      1.61661775	     -2.03415455	      0.39435015	      1.61661775	     -1.67518610	      0.32040734	      1.35584721	     -1.55552995	      0.19715782	      1.02991729	     -1.43587380	      2.46461078	      7.52138821	    -10.64786575	      0.00000000	      0.00000000	     27.79874254	     -0.80189201	     -6.56002937	     20.83010927	    -10.91821823	     94.44547386	     38.76144562	     20.09778833	      6.58936701	      3.86569494	     10.13192367	     -5.55480464	     57.57562713	     37.55597196	     81.25454996	      0.23597913	     -3.32527046
      0.01886792	     10.35219333	     -4.06010795	     98.44401838	      0.41411164	      0.73518090	      0.72552431	      7.20310847	      4.52320818	      1.64681596	      0.91424312	      0.01595655	     19.43042607	    -14.62372370	      0.00000000	      9.73311245	     -4.15320574	      2.82656827	      0.36690980	      0.00640378	     33.62373119	     15.07755462	      0.00000000	      0.33679902	      0.66418066	     -1.91913583	      0.62546947	      0.88336028	     -2.03908182	      0.55332712	      1.61488887	     -2.03908182	      0.38492760	      1.61488887	     -1.67924385	      0.31275157	      1.35439721	     -1.55929786	      0.19244696	      1.02881585	     -1.43935187	      2.40572175	      7.51334451	    -10.67365773	      0.00000000	      0.00000000	     27.90509800	     -0.90672065	     -6.89813043	     20.65273581	    -11.11562700	     94.48440294	     39.10590560	     20.28113131	      6.90185492	      3.71618255	      9.72849104	     -5.73866844	     57.36043624	     37.99900213	     81.04815542	      0.00181072	     -3.29549090
      0.03773585	     10.47594674	     -3.82625324	     99.70178561	      0.41269953	      0.73551178	      0.72397049	      6.72179752	      4.59192120	     -0.36618946	      0.73806332	      0.01288163	     19.60867991	    -14.07601665	      0.00000000	      9.53498479	     -4.15994419	      5.82957353	      0.38150389	      0.00665850	     33.22337915	     13.32506538	      0.00000000	      0.32165097	      0.65927674	     -2.10065339	      0.59733802	      0.87683806	     -2.23194423	      0.52844038	      1.60296545	     -2.23194423	      0.36761489	      1.60296545	     -1.83807172	      0.29868509	      1.34439712	     -1.70678088	      0.18379136	      1.02121966	     -1.57549005	      2.29752071	      7.45787029	    -11.68320398	      0.00000000	      0.00000000	     27.95507991	     -1.22619434	     -8.38455489	     20.22091987	    -11.03409543	     93.45788619	     38.63717970	     26.60172640	      7.45783691	      2.15730554	      9.53136257	     -5.96289099	     57.54384288	     38.40449123	     79.21340647	     -0.32569960	     -2.38032471
      0.05660377	     10.50204633	     -3.75897645	     99.85550136	      0.41277899	      0.73588666	      0.72252330	      6.52605970	      4.65052069	     -0.50092466	      0.63026329	      0.01100017	     19.76214435	    -14.21616863	      0.00000000	      9.38775117	     -4.21092612	      6.07730620	      0.37574086	      0.00655792	     33.10717806	     13.54631939	      0.00000000	      0.32733008	      0.66083258	     -2.08115967	      0.60788469	      0.87890734	     -2.21123214	      0.53777058	      1.60674834	     -2.21123214	      0.37410555	      1.60674834	     -1.82101471	      0.30395871	      1.34756980	     -1.69094223	      0.18703641	      1.02362967	     -1.56086975	      2.33808601	      7.47547035	    -11.57478571	      0.00000000	      0.00000000	     27.96729871	     -1.27072754	     -8.45990617	     20.03730049	    -11.08497534	     93.41561397	     38.69748044	     26.61925712	      7.49301000	      2.09632838	      9.38791117	     -6.04562880	     57.52677754	     38.49989273	     79.17030401	     -0.26138085	     -2.39254357
      0.07547170	     10.48226093	     -3.51633459	    100.85327268	      0.41174383	      0.73627416	      0.72188888	      6.19227208	      4.60091753	     -1.28064636	      0.50639910	      0.00883833	     19.99369897	    -14.56791402	      0.00000000	      9.28484870	     -4.10804402	      6.96801914	      0.38571079	      0.00673192	     33.02371613	     14.14626254	      0.00000000	      0.29766548	      0.64172610	     -2.17278603	      0.55279456	      0.85349572	     -2.30858516	      0.48903461	      1.56029285	     -2.30858516	      0.34020188	      1.56029285	     -1.90118778	      0.27641216	      1.30860787	     -1.76538865	      0.17008605	      0.99403374	     -1.62958953	      2.12619475	      7.25933404	    -12.08438409	      0.00000000	      0.00000000	     27.95310905	     -1.57161834	     -9.65486038	     19.44903138	    -11.11347090	     91.96826697	     38.67237235	     26.47402750	      7.56839492	      1.72746211	      9.48743870	     -6.18744522	     57.35065972	     38.49417293	     78.45977058	      1.01447098	     -2.06589452
      0.09433962	     10.50165974	     -3.50097718	    100.96353722	      0.41174228	      0.73654633	      0.72134633	      6.18429085	      4.61785547	     -1.26907353	      0.44919945	      0.00784001	     20.08308616	    -14.57837106	      0.00000000	      9.30938792	     -4.10467553	      7.01354868	      0.36969897	      0.00645246	     33.03289935	     14.18169905	      0.00000000	      0.29761279	      0.64316752	     -2.15770765	      0.55269671	      0.85541280	     -2.29256438	      0.48894805	      1.56379750	     -2.29256438	      0.34014166	      1.56379750	     -1.88799419	      0.27636324	      1.31154720	     -1.75313746	      0.17005595	      0.99626648	     -1.61828074	      2.12581840	      7.27563957	    -12.00052263	      0.00000000	      0.00000000	     27.93260487	     -1.58459844	     -9.66377323	     19.43243464	    -11.11752718	     91.92350902	     38.65825452	     26.45427725	      7.56221404	      1.72156469	      9.53727135	     -6.23763430	     57.30993611	     38.49492978	     78.42961834	      1.05094392	     -2.07330500
      0.11320755	     10.40592329	     -3.41251793	    101.54509989	      0.41127936	      0.73678785	      0.72045950	      6.03046271	      4.50218770	     -1.78155443	      0.38614560	      0.00673951	     20.62613271	    -14.42764103	      0.00000000	      9.29458524	     -3.96529071	      7.66181878	      0.36096950	      0.00630011	     32.97637999	     14.59247639	      0.00000000	      0.28641791	      0.61818292	     -2.15146120	      0.53190671	      0.82218329	     -2.28592753	      0.47055599	      1.50304996	     -2.28592753	      0.32734703	      1.50304996	     -1.88252855	      0.26596767	      1.26059862	     -1.74806223	      0.16365920	      0.95756535	     -1.61359590	      2.04585451	      6.99300888	    -11.96578177	      0.00000000	      0.00000000	     27.92337059	     -2.06776970	    -10.99294275	     18.33407315	    -11.25888892	     89.17052406	     38.77152115	     24.42091214	      7.65301511	      2.11974382	      9.64668931	     -6.24181807	     56.81368283	     38.25079074	     76.69683322	      3.84149313	     -1.71072414
      0.13207547	     10.41082388	     -3.43655490	    101.59820836	      0.41124339	      0.73684020	      0.71989656	      6.03709576	      4.50397883	     -1.77660885	      0.35397893	      0.00617810	     20.69229219	    -14.42642947	      0.00000000	      9.32140928	     -3.95852841	      7.65967926	      0.35739974	      0.00623780	     32.95636933	     14.59478033	      0.00000000	      0.28358961	      0.62173578	     -2.14684443	      0.52665426	      0.82690859	     -2.28102220	      0.46590937	      1.51168837	     -2.28102220	      0.32411456	      1.51168837	     -1.87848887	      0.26334131	      1.26784360	     -1.74431110	      0.16204310	      0.96306872	     -1.61013332	      2.02565221	      7.03319949	    -11.94010465	      0.00000000	      0.00000000	     27.91203362	     -2.10339808	    -11.00712529	     18.37896287	    -11.28876433	     89.06239897	     38.76581100	     24.33289262	      7.65822997	      2.11342484	      9.73520232	     -6.27539974	     56.72623780	     38.33900580	     76.62943272	      3.86964674	     -1.74928534
      0.15094340	     10.41223947	     -3.42006455	    101.79366933	      0.41110229	      0.73683987	      0.71895430	      5.95240641	      4.50666908	     -2.41896006	      0.33083279	      0.00577412	     20.95677811	    -13.70682172	      0.00000000	      9.27128584	     -3.95788978	      7.95843418	      0.34924708	      0.00609551	     32.68985383	     14.43747502	      0.00000000	      0.27598903	      0.61906198	     -2.14553504	      0.51253922	      0.82335243	     -2.27963098	      0.45342237	      1.50518729	     -2.27963098	      0.31542786	      1.50518729	     -1.87734316	      0.25628341	      1.26239118	     -1.74324722	      0.15770013	      0.95892700	     -1.60915128	      1.97136202	      7.00295289	    -11.93282224	      0.00000000	      0.00000000	     27.95058982	     -2.67751185	    -11.89613540	     17.74996087	    -11.52902960	     87.43579283	     39.48039480	     15.75840403	      7.78581239	      4.60944444	      9.69376366	     -6.34838532	     56.64275797	     38.48943048	     72.96587729	      4.91409394	     -1.50160974
